# xmcd CD database file
# Generated: Mon Mär 10 15:54:33 2003 by KSCD
# 
# Track frame offsets:
#       150
#       18257
#       34875
#       51450
#       71887
#       91338
#       107578
#       122194
#       140068
#       156967
#       181461
#       197944
#       214572
#       232703
#       247219
#       264944
#       280773
#
# Disc length: 3979 seconds
#
# Revision: 1
# Processed by: cddbd v1.4PL0 Copyright (c) Steve Scherf et al.
# Submitted via: Kscd 1.3.3
#
DISCID=fc0f8911
DTITLE=Sarah Connor - Green Eyed Soul
DYEAR=1900
DGENRE=
TTITLE0=Let' Get Back To Bad - Boy !
TTITLE1=If U Were My Man
TTITLE2=French Kissing
TTITLE3=Magic Ride (What'ever U Wish 4)
TTITLE4=From Sarah With Love
TTITLE5=Make U High
TTITLE6=In My House
TTITLE7=Where Do We Go From Here
TTITLE8=I Can't Lie
TTITLE9=Imagining
TTITLE10=Every Little Thing
TTITLE11=Undressed
TTITLE12=Can't Get None
TTITLE13=Man Of My Dreams
TTITLE14=Let Us Come 2gether
TTITLE15=When I Dream
TTITLE16=Let' Get Back To Bad - Boy !
EXTD=
EXTT0=
EXTT1=
EXTT2=
EXTT3=
EXTT4=
EXTT5=
EXTT6=
EXTT7=
EXTT8=
EXTT9=
EXTT10=
EXTT11=
EXTT12=
EXTT13=
EXTT14=
EXTT15=
EXTT16=
PLAYORDER=
